# 3ds Max Wavefront OBJ Exporter v0.99 - (c)2007 guruware
# File Created: 04.12.2025 13:58:02

mtllib Door_Dead_of_Winter.mtl

#
# object Door
#

v  -9.2454 68.8297 32.8824
v  23.9478 68.8297 32.8824
v  23.9478 110.9711 32.8825
v  -9.2454 110.9711 32.8825
v  -11.2688 66.2617 32.4978
v  26.1294 66.2617 32.4978
v  26.1294 66.2617 34.4789
v  -11.2688 66.2617 34.4789
v  26.1294 113.3018 32.4978
v  26.1294 113.3018 34.4789
v  -11.2688 113.3018 32.4978
v  -11.2688 113.3018 34.4789
v  23.9478 68.8297 34.4789
v  -9.2454 68.8297 34.4789
v  23.9478 110.9711 34.4789
v  -9.2454 110.9711 34.4789
v  40.0070 0.3080 25.2303
v  40.0070 127.0111 25.2303
v  40.0070 127.0111 32.7581
v  40.0070 0.3080 32.7580
v  -25.4853 127.0111 25.2303
v  -25.4853 127.0111 32.7581
v  -25.4853 0.3080 25.2303
v  -25.4853 0.3080 32.7580
v  32.6100 119.4548 32.7581
v  32.6100 0.3080 32.7580
v  -17.8648 119.4548 32.7581
v  -17.8648 0.3080 32.7580
v  32.6100 0.3080 32.2041
v  32.6100 119.4548 32.2042
v  30.9177 118.7620 32.2008
v  30.9177 0.3080 32.2008
v  -17.8648 119.4548 32.2042
v  -16.3577 118.7620 32.2008
v  -17.8648 0.3080 32.2041
v  -16.3577 0.3080 32.2008
v  -16.1312 0.3080 32.7600
v  -16.1312 118.1947 32.7601
v  30.6912 118.1947 32.7601
v  30.6912 0.3080 32.7600
# 40 vertices

vn 0.5774 0.5774 0.5774
vn -0.5774 0.5774 0.5774
vn -0.5774 -0.5774 0.5774
vn 0.5774 -0.5774 0.5774
vn -0.7071 -0.7071 -0.0000
vn 0.7071 -0.7071 -0.0000
vn 0.7071 0.7071 -0.0000
vn -0.7071 0.7071 -0.0000
vn -0.3015 0.3015 0.9045
vn 0.3015 0.3015 0.9045
vn -0.3015 -0.3015 0.9045
vn 0.3015 -0.3015 0.9045
vn 1.0000 0.0000 -0.0000
vn 0.7071 0.7071 0.0000
vn 0.7071 -0.0000 0.7071
vn -0.7071 0.7071 0.0000
vn -1.0000 0.0000 -0.0000
vn -0.7071 -0.0000 0.7071
vn -0.7078 -0.0000 0.7064
vn -0.5777 -0.5775 0.5768
vn 0.1243 0.1478 0.9812
vn 0.5580 -0.0000 0.8299
vn 0.5777 -0.5775 0.5768
vn -0.1242 0.1479 0.9812
vn 0.7078 -0.0000 0.7064
vn -0.5580 -0.0000 0.8299
vn -0.5588 -0.0000 0.8293
vn -0.4765 0.2867 0.8311
vn 0.4765 0.2867 0.8311
vn 0.5589 -0.0000 0.8292
# 30 vertex normals

vt 0.0079 0.3044 0.0000
vt 0.0079 0.1151 0.0000
vt 0.2483 0.1151 0.0000
vt 0.2483 0.3044 0.0000
vt 0.8187 0.0157 0.0000
vt 0.9848 0.0157 0.0000
vt 0.9848 0.0245 0.0000
vt 0.8187 0.0245 0.0000
vt 0.0145 0.0147 0.0000
vt 0.2721 0.0150 0.0000
vt 0.2721 0.0252 0.0000
vt 0.0145 0.0255 0.0000
vt 0.4517 0.0155 0.0000
vt 0.4517 0.0247 0.0000
vt 0.6457 0.7083 0.0000
vt 0.8590 0.7111 0.0000
vt 0.8463 0.7256 0.0000
vt 0.6570 0.7231 0.0000
vt 0.8555 0.9794 0.0000
vt 0.8432 0.9659 0.0000
vt 0.6422 0.9766 0.0000
vt 0.6539 0.9635 0.0000
vt 0.2052 0.0521 0.0000
vt 0.0159 0.0522 0.0000
vt 0.0158 0.0431 0.0000
vt 0.2052 0.0430 0.0000
vt 0.8752 0.0516 0.0000
vt 0.6348 0.0518 0.0000
vt 0.6348 0.0427 0.0000
vt 0.8751 0.0425 0.0000
vt 0.4455 0.0519 0.0000
vt 0.4455 0.0428 0.0000
vt 0.5148 0.2565 0.0000
vt 0.5125 0.9791 0.0000
vt 0.4696 0.9790 0.0000
vt 0.4719 0.2563 0.0000
vt 0.5334 0.9819 0.0000
vt 0.5334 0.6084 0.0000
vt 0.5763 0.6084 0.0000
vt 0.5763 0.9819 0.0000
vt 0.3133 0.9815 0.0000
vt 0.3197 0.2589 0.0000
vt 0.3626 0.2593 0.0000
vt 0.3563 0.9819 0.0000
vt 0.4275 0.9357 0.0000
vt 0.4297 0.2562 0.0000
vt 0.6194 0.6518 0.0000
vt 0.6194 0.9397 0.0000
vt 0.4061 0.2597 0.0000
vt 0.4001 0.9392 0.0000
vt 0.2998 0.3131 0.0000
vt 0.2992 0.9920 0.0000
vt 0.2896 0.9880 0.0000
vt 0.2902 0.3131 0.0000
vt 0.0083 0.9920 0.0000
vt 0.0169 0.9881 0.0000
vt 0.0076 0.3131 0.0000
vt 0.0162 0.3131 0.0000
vt 0.4243 0.9357 0.0000
vt 0.4265 0.2562 0.0000
vt 0.6226 0.6518 0.0000
vt 0.6226 0.9397 0.0000
vt 0.4092 0.2597 0.0000
vt 0.4033 0.9392 0.0000
vt 0.0196 0.3131 0.0000
vt 0.0201 0.9844 0.0000
vt 0.2864 0.9843 0.0000
vt 0.2867 0.3131 0.0000
# 68 texture coords

o Door
g Door
usemtl 01___Default
s 4
f 1/1/1 2/2/2 3/3/3 4/4/4 
s 8
f 5/5/5 6/6/6 7/7/4 8/8/3 
s 16
f 6/9/6 9/10/7 10/11/1 7/12/4 
s 32
f 9/10/7 11/13/8 12/14/2 10/11/1 
s 64
f 11/13/8 5/5/5 8/8/3 12/14/2 
s off
f 8/15/3 7/16/4 13/17/9 14/18/10 
f 7/16/4 10/19/1 15/20/11 13/17/9 
f 10/19/1 12/21/2 16/22/12 15/20/11 
f 12/21/2 8/15/3 14/18/10 16/22/12 
f 14/23/10 13/24/9 2/25/2 1/26/1 
f 13/27/9 15/28/11 3/29/3 2/30/2 
f 15/28/11 16/31/12 4/32/4 3/29/3 
f 16/31/12 14/23/10 1/26/1 4/32/4 
s 16
f 17/33/13 18/34/14 19/35/1 20/36/15 
s 32
f 18/37/14 21/38/16 22/39/2 19/40/1 
s 64
f 21/41/16 23/42/17 24/43/18 22/44/2 
s 4
f 20/36/15 19/35/1 25/45/11 26/46/18 
f 19/40/1 22/39/2 27/47/12 25/48/11 
f 22/44/2 24/43/18 28/49/15 27/50/12 
f 29/51/19 30/52/20 31/53/21 32/54/22 
f 30/52/20 33/55/23 34/56/24 31/53/21 
f 33/55/23 35/57/25 36/58/26 34/56/24 
s off
f 26/46/18 25/45/11 30/59/20 29/60/19 
f 25/48/11 27/47/12 33/61/23 30/62/20 
f 27/50/12 28/49/15 35/63/25 33/64/23 
f 37/65/27 38/66/28 34/56/24 36/58/26 
f 38/66/28 39/67/29 31/53/21 34/56/24 
f 39/67/29 40/68/30 32/54/22 31/53/21 
s 7
f 38/66/28 37/65/27 40/68/30 39/67/29 
# 29 polygons

