# 3ds Max Wavefront OBJ Exporter v0.99 - (c)2007 guruware
# File Created: 10.12.2025 22:40:01

mtllib Untitled.mtl

#
# object Box001
#

v  -6.0969 0.1466 -0.3127
v  -6.0969 0.1466 -10.3388
v  0.1408 0.1466 -7.1733
v  0.2862 0.1466 -0.3127
v  -6.0969 0.3149 -0.3127
v  -0.7030 0.3149 -0.3127
v  -6.0969 0.3149 -10.3388
v  -0.7030 0.2303 -0.3127
v  0.5699 0.1466 -0.5963
v  0.5699 0.1466 -7.1733
v  0.5699 0.2303 -7.1733
v  0.5699 0.2303 -0.5963
v  0.5699 0.1466 -10.3388
v  -0.3442 0.2303 -10.3388
v  0.5699 0.2303 -10.3388
v  -0.3442 0.2303 -7.1733
v  1.0601 0.1466 -7.5312
v  1.0601 0.1466 -9.9809
v  1.0601 0.2303 -9.9809
v  1.0601 0.2303 -7.5312
v  -0.3442 0.2303 -0.6715
v  0.2862 0.2303 -0.3127
v  -0.3442 0.3149 -10.3388
v  -0.3442 0.3149 -7.1733
v  -0.3442 0.3149 -0.6715
# 25 vertices

vn -0.5774 -0.5774 0.5773
vn -0.5774 -0.5774 -0.5774
vn 0.0000 -1.0000 -0.0000
vn 0.2971 -0.6303 0.7173
vn -0.5774 0.5774 0.5774
vn 0.2971 0.6303 0.7173
vn -0.5774 0.5774 -0.5774
vn 0.1857 0.1313 0.9738
vn 0.7173 -0.6303 0.2971
vn 0.5044 -0.8246 0.2563
vn 0.5044 0.8246 0.2563
vn 0.7173 0.6303 0.2971
vn 0.2374 -0.6435 -0.7277
vn 0.3015 0.3015 -0.9045
vn 0.2374 0.6435 -0.7277
vn 0.7071 0.7071 -0.0000
vn 0.7009 -0.6180 0.3561
vn 0.7009 -0.6180 -0.3561
vn 0.7009 0.6180 -0.3561
vn 0.7009 0.6180 0.3561
vn 0.5491 0.8042 0.2274
vn 0.7733 -0.5470 -0.3206
vn 0.0000 0.7071 0.7071
vn 0.5774 0.5774 -0.5774
# 24 vertex normals

vt 0.1064 0.3968 0.0000
vt 0.5278 0.3987 0.0000
vt 0.3936 0.6603 0.0000
vt 0.1052 0.6651 0.0000
vt 0.5348 0.7255 0.0000
vt 0.5353 0.9523 0.0000
vt 0.1134 0.7264 0.0000
vt 0.0203 0.0264 0.0000
vt 0.0237 0.0680 0.0000
vt 0.0195 0.2947 0.0000
vt 0.0467 0.9756 0.0000
vt 0.0489 0.6992 0.0000
vt 0.0524 0.6992 0.0000
vt 0.0503 0.9757 0.0000
vt 0.0175 0.9963 0.0000
vt 0.0211 0.9579 0.0000
vt 0.0210 0.9963 0.0000
vt 0.5266 0.6789 0.0000
vt 0.2261 0.3528 0.0000
vt 0.0931 0.3521 0.0000
vt 0.0933 0.3136 0.0000
vt 0.2264 0.3144 0.0000
vt 0.0490 0.6737 0.0000
vt 0.0490 0.5707 0.0000
vt 0.0525 0.5707 0.0000
vt 0.0525 0.6737 0.0000
vt 0.3935 0.6783 0.0000
vt 0.5114 0.6995 0.0000
vt 0.4084 0.6990 0.0000
vt 0.0490 0.5452 0.0000
vt 0.0525 0.5452 0.0000
vt 0.2110 0.3733 0.0000
vt 0.1080 0.3728 0.0000
vt 0.1170 0.6771 0.0000
vt 0.4997 0.3159 0.0000
vt 0.5026 0.3544 0.0000
vt 0.0238 0.0264 0.0000
vt 0.0183 0.7161 0.0000
vt 0.1139 0.9682 0.0000
vt 0.2470 0.9680 0.0000
vt 0.0272 0.0680 0.0000
vt 0.0266 0.2947 0.0000
vt 0.0812 0.5866 0.0000
vt 0.0806 0.8599 0.0000
vt 0.0771 0.8599 0.0000
vt 0.0776 0.5866 0.0000
vt 0.0804 0.9929 0.0000
vt 0.0768 0.9929 0.0000
vt 0.0254 0.7161 0.0000
vt 0.0247 0.9579 0.0000
vt 0.0501 0.9925 0.0000
vt 0.0466 0.9925 0.0000
vt 0.0777 0.5653 0.0000
vt 0.0812 0.5653 0.0000
vt 0.5148 0.3009 0.0000
vt 0.5146 0.3425 0.0000
vt 0.5203 0.9674 0.0000
# 57 texture coords

o Box001
g Box001
usemtl wire_160148043
s 1
f 1/1/1 2/2/2 3/3/3 4/4/4 
f 5/5/5 6/6/6 7/7/7 
s 2
f 4/8/4 8/9/8 1/10/1 
f 9/11/9 10/12/10 11/13/11 12/14/12 
f 13/15/13 14/16/14 15/17/15 
s 1
f 2/2/2 13/18/13 3/3/3 
f 11/19/11 15/20/15 14/21/14 16/22/16 
s 2
f 17/23/17 18/24/18 19/25/19 20/26/20 
s 1
f 10/27/10 13/18/13 18/28/18 17/29/17 
s 4
f 13/30/13 15/31/15 19/25/19 18/24/18 
s 1
f 15/20/15 11/19/11 20/32/20 19/33/19 
s 4
f 11/13/11 10/12/10 17/23/17 20/26/20 
s 1
f 3/3/3 10/27/10 9/34/9 4/4/4 
f 21/35/21 12/36/12 11/19/11 16/22/16 
s 2
f 4/8/4 22/37/22 22/37/23 
f 13/15/13 2/38/2 14/16/14 
s 1
f 13/18/13 10/27/10 3/3/3 
f 23/39/24 7/7/7 24/40/16 
s 2
f 1/10/1 8/9/8 6/41/6 5/42/5 
s 4
f 21/43/21 16/44/16 24/45/16 25/46/12 
f 16/44/16 14/47/14 23/48/24 24/45/16 
s 2
f 14/16/14 2/38/2 7/49/7 23/50/24 
s 4
f 2/38/2 1/10/1 5/42/5 7/49/7 
f 9/11/9 12/14/12 22/51/22 4/52/4 
s 16
f 6/53/6 8/54/8 21/43/21 25/46/12 
s 40
f 21/35/21 8/55/8 22/56/23 
s off
f 22/37/23 8/9/8 4/8/4 
s 1
f 25/57/12 24/40/16 7/7/7 
f 6/6/6 25/57/12 7/7/7 
f 21/35/21 22/56/23 22/56/22 12/36/12 
# 18 polygons - 12 triangles

