# 3ds Max Wavefront OBJ Exporter v0.99 - (c)2007 guruware
# File Created: 10.12.2025 03:13:46

mtllib hallway.mtl

#
# object HALLWAY
#

v  10.7444 -0.0000 3.5320
v  10.7444 3.7108 3.5320
v  10.7444 3.7108 0.0000
v  10.7444 -0.0000 0.0000
v  4.7388 -0.0000 3.5320
v  4.7388 3.7108 3.5320
v  -6.0327 0.0000 3.5320
v  -6.0327 3.7108 3.5320
v  -6.0327 3.7108 0.0000
v  -6.0327 0.0000 0.0000
v  4.7388 -0.0000 0.0000
v  4.7388 3.7108 0.0000
v  4.7388 3.7108 -6.2937
v  4.7388 -0.0000 -6.2937
v  10.7444 -0.0000 -6.2937
v  10.7444 3.7108 -6.2937
v  10.7444 -0.0000 -2.8313
v  4.7388 -0.0000 -2.8313
v  10.7444 3.7108 -2.8313
v  4.7388 3.7108 -2.8313
v  22.0589 -0.0000 -6.2937
v  22.0589 -0.0000 -2.8313
v  22.0589 3.7108 -2.8313
v  22.0589 3.7108 -6.2937
# 24 vertices

vn -1.0000 0.0000 -0.0000
vn 0.0000 0.0000 -1.0000
vn 0.0000 0.0000 1.0000
vn 0.0000 -1.0000 -0.0000
vn 0.0000 1.0000 -0.0000
vn 1.0000 0.0000 -0.0000
# 6 vertex normals

vt 0.4574 0.4911 0.0000
vt 0.3576 0.4910 0.0000
vt 0.3577 0.3961 0.0000
vt 0.4574 0.3962 0.0000
vt 0.4573 0.6525 0.0000
vt 0.3576 0.6525 0.0000
vt 0.4572 0.9420 0.0000
vt 0.3574 0.9420 0.0000
vt 0.5483 0.0203 0.0000
vt 0.6480 0.0206 0.0000
vt 0.6471 0.3101 0.0000
vt 0.5473 0.3098 0.0000
vt 0.5468 0.4790 0.0000
vt 0.6465 0.4793 0.0000
vt 0.6460 0.6407 0.0000
vt 0.5463 0.6404 0.0000
vt 0.1975 0.4920 0.0000
vt 0.1974 0.3306 0.0000
vt 0.2923 0.3305 0.0000
vt 0.2925 0.4919 0.0000
vt 0.1977 0.7815 0.0000
vt 0.2927 0.7814 0.0000
vt 0.8809 0.4824 0.0000
vt 0.8810 0.3210 0.0000
vt 0.9760 0.3210 0.0000
vt 0.9758 0.4825 0.0000
vt 0.8813 0.0314 0.0000
vt 0.9762 0.0315 0.0000
vt 0.8048 0.4823 0.0000
vt 0.8049 0.3209 0.0000
vt 0.7117 0.4822 0.0000
vt 0.7119 0.3208 0.0000
vt 0.3577 0.3200 0.0000
vt 0.4574 0.3201 0.0000
vt 0.5471 0.3859 0.0000
vt 0.6468 0.3862 0.0000
vt 0.1214 0.4920 0.0000
vt 0.1213 0.3306 0.0000
vt 0.0284 0.4921 0.0000
vt 0.0282 0.3307 0.0000
vt 0.7114 0.7863 0.0000
vt 0.8045 0.7864 0.0000
vt 0.4576 0.0160 0.0000
vt 0.3579 0.0159 0.0000
vt 0.5453 0.9445 0.0000
vt 0.6450 0.9448 0.0000
vt 0.1211 0.0265 0.0000
vt 0.0280 0.0266 0.0000
# 48 texture coords

o HALLWAY
g HALLWAY
usemtl wire_177028149
s 1
f 1/1/1 2/2/1 3/3/1 4/4/1 
f 5/5/2 6/6/2 2/2/2 1/1/2 
f 7/7/2 8/8/2 6/6/2 5/5/2 
f 9/9/3 10/10/3 11/11/3 12/12/3 
f 13/13/3 14/14/3 15/15/3 16/16/3 
f 12/17/4 3/18/4 2/19/4 6/20/4 
f 9/21/4 12/17/4 6/20/4 8/22/4 
f 4/23/5 11/24/5 5/25/5 1/26/5 
f 11/24/5 10/27/5 7/28/5 5/25/5 
f 4/23/5 17/29/5 18/30/5 11/24/5 
f 17/29/5 15/31/5 14/32/5 18/30/5 
f 19/33/1 17/34/1 4/4/1 3/3/1 
f 20/35/6 12/12/6 11/11/6 18/36/6 
f 13/13/6 20/35/6 18/36/6 14/14/6 
f 3/18/4 12/17/4 20/37/4 19/38/4 
f 19/38/4 20/37/4 13/39/4 16/40/4 
f 21/41/5 15/31/5 17/29/5 22/42/5 
f 22/43/2 17/34/2 19/33/2 23/44/2 
f 24/45/3 16/16/3 15/15/3 21/46/3 
f 23/47/4 19/38/4 16/40/4 24/48/4 
# 20 polygons

