# 3ds Max Wavefront OBJ Exporter v0.99 - (c)2007 guruware
# File Created: 10.12.2025 15:33:05

mtllib HOSPITALROOMUNWRAPPED.mtl

#
# object HOSPITAL001
#

v  0.0000 8.0336 13.2455
v  0.0000 7.0294 13.2455
v  -25.4712 8.0336 13.2455
v  0.0000 6.0252 13.2455
v  0.0000 5.0210 13.2455
v  0.0000 4.0168 13.2455
v  -25.4712 0.0000 13.2455
v  0.0000 3.0126 13.2455
v  0.0000 2.0084 13.2455
v  0.0000 1.0042 13.2455
v  0.0000 0.0000 13.2455
v  -25.4712 0.0000 -0.0000
v  0.0000 0.0000 -0.0000
v  0.0000 1.0042 -0.0000
v  0.0000 2.0084 -0.0000
v  0.0000 3.0126 -0.0000
v  0.0000 4.0168 -0.0000
v  -25.4712 8.0336 -0.0000
v  0.0000 5.0210 -0.0000
v  0.0000 6.0252 -0.0000
v  0.0000 7.0294 -0.0000
v  0.0000 8.0336 -0.0000
v  0.0000 8.0336 11.5898
v  0.0000 8.0336 9.9341
v  0.0000 8.0336 8.2784
v  0.0000 8.0336 6.6227
v  0.0000 8.0336 4.9671
v  0.0000 8.0336 3.3114
v  0.0000 8.0336 1.6557
v  0.0000 0.0000 1.6557
v  0.0000 0.0000 3.3114
v  0.0000 0.0000 4.9671
v  0.0000 0.0000 6.6227
v  0.0000 0.0000 8.2784
v  0.0000 0.0000 9.9341
v  0.0000 0.0000 11.5898
v  0.0000 5.0210 3.3114
v  0.0000 4.0168 3.3114
v  0.0000 4.0168 4.9671
v  0.0000 5.0210 4.9671
v  0.0000 6.0252 3.3114
v  0.0000 6.0252 4.9671
v  0.0000 5.0210 6.6227
v  0.0000 6.0252 6.6227
v  0.0000 5.0210 1.6557
v  0.0000 4.0168 1.6557
v  0.0000 6.0252 1.6557
v  0.0000 7.0294 1.6557
v  0.0000 7.0294 3.3114
v  0.0000 7.0294 4.9671
v  0.0000 7.0294 6.6227
v  0.0000 5.0210 11.5898
v  0.0000 4.0168 11.5898
v  0.0000 5.0210 9.9341
v  0.0000 4.0168 9.9341
v  0.0000 6.0252 9.9341
v  0.0000 6.0252 11.5898
v  0.0000 5.0210 8.2784
v  0.0000 4.0168 8.2784
v  0.0000 6.0252 8.2784
v  0.0000 7.0294 8.2784
v  0.0000 7.0294 9.9341
v  0.0000 7.0294 11.5898
v  0.0000 1.0042 11.5898
v  0.0000 1.0042 9.9341
v  0.0000 2.0084 9.9341
v  0.0000 2.0084 11.5898
v  0.0000 1.0042 8.2784
v  0.0000 2.0084 8.2784
v  0.0000 3.0126 8.2784
v  0.0000 3.0126 9.9341
v  0.0000 3.0126 11.5898
v  0.0000 1.0042 3.3114
v  0.0000 1.0042 4.9671
v  0.0000 2.0084 3.3114
v  0.0000 2.0084 4.9671
v  0.0000 1.0042 1.6557
v  0.0000 2.0084 1.6557
v  0.0000 3.0126 1.6557
v  0.0000 3.0126 3.3114
v  0.0000 3.0126 4.9671
# 81 vertices

vn 0.0000 0.0000 -1.0000
vn 0.0000 0.0000 1.0000
vn 0.0000 -1.0000 -0.0000
vn 0.0000 1.0000 -0.0000
vn 1.0000 0.0000 -0.0000
vn -1.0000 0.0000 -0.0000
# 6 vertex normals

vt 0.8041 0.0124 0.0000
vt 0.8269 0.0124 0.0000
vt 0.8037 0.5919 0.0000
vt 0.8498 0.0124 0.0000
vt 0.8726 0.0124 0.0000
vt 0.8955 0.0124 0.0000
vt 0.9865 0.5920 0.0000
vt 0.9183 0.0124 0.0000
vt 0.9412 0.0124 0.0000
vt 0.9640 0.0125 0.0000
vt 0.9869 0.0125 0.0000
vt 0.6065 0.8922 0.0000
vt 0.6049 0.3127 0.0000
vt 0.6277 0.3126 0.0000
vt 0.6506 0.3125 0.0000
vt 0.6734 0.3125 0.0000
vt 0.6963 0.3124 0.0000
vt 0.7893 0.8917 0.0000
vt 0.7191 0.3124 0.0000
vt 0.7419 0.3123 0.0000
vt 0.7648 0.3122 0.0000
vt 0.7876 0.3122 0.0000
vt 0.0038 0.6471 0.0000
vt 0.0035 0.6094 0.0000
vt 0.5830 0.6050 0.0000
vt 0.0040 0.6847 0.0000
vt 0.0043 0.7224 0.0000
vt 0.0046 0.7601 0.0000
vt 0.5853 0.9064 0.0000
vt 0.0049 0.7977 0.0000
vt 0.0052 0.8354 0.0000
vt 0.0055 0.8731 0.0000
vt 0.0058 0.9108 0.0000
vt 0.5856 0.5391 0.0000
vt 0.5853 0.5767 0.0000
vt 0.0058 0.5721 0.0000
vt 0.5859 0.5014 0.0000
vt 0.5862 0.4637 0.0000
vt 0.5865 0.4260 0.0000
vt 0.0082 0.2708 0.0000
vt 0.5868 0.3884 0.0000
vt 0.5871 0.3507 0.0000
vt 0.5874 0.3130 0.0000
vt 0.5877 0.2754 0.0000
vt 0.9863 0.8934 0.0000
vt 0.8035 0.8933 0.0000
vt 0.7189 0.2370 0.0000
vt 0.6960 0.2371 0.0000
vt 0.6959 0.1994 0.0000
vt 0.7188 0.1993 0.0000
vt 0.7417 0.2369 0.0000
vt 0.7416 0.1993 0.0000
vt 0.7187 0.1617 0.0000
vt 0.7415 0.1616 0.0000
vt 0.7190 0.2747 0.0000
vt 0.6961 0.2747 0.0000
vt 0.7418 0.2746 0.0000
vt 0.7647 0.2746 0.0000
vt 0.7646 0.2369 0.0000
vt 0.7875 0.2745 0.0000
vt 0.7874 0.2368 0.0000
vt 0.7645 0.1992 0.0000
vt 0.7644 0.1615 0.0000
vt 0.7873 0.1991 0.0000
vt 0.7872 0.1615 0.0000
vt 0.7183 0.0487 0.0000
vt 0.6955 0.0487 0.0000
vt 0.6954 0.0111 0.0000
vt 0.7182 0.0110 0.0000
vt 0.7185 0.0863 0.0000
vt 0.6956 0.0864 0.0000
vt 0.7413 0.0863 0.0000
vt 0.7412 0.0486 0.0000
vt 0.7411 0.0109 0.0000
vt 0.7186 0.1240 0.0000
vt 0.6957 0.1241 0.0000
vt 0.7414 0.1239 0.0000
vt 0.7643 0.1239 0.0000
vt 0.7642 0.0862 0.0000
vt 0.7871 0.1238 0.0000
vt 0.7870 0.0861 0.0000
vt 0.7640 0.0485 0.0000
vt 0.7639 0.0109 0.0000
vt 0.7869 0.0485 0.0000
vt 0.7868 0.0108 0.0000
vt 0.6270 0.0489 0.0000
vt 0.6041 0.0490 0.0000
vt 0.6040 0.0113 0.0000
vt 0.6268 0.0112 0.0000
vt 0.6271 0.0866 0.0000
vt 0.6042 0.0867 0.0000
vt 0.6499 0.0865 0.0000
vt 0.6498 0.0489 0.0000
vt 0.6497 0.0112 0.0000
vt 0.6272 0.1243 0.0000
vt 0.6043 0.1243 0.0000
vt 0.6500 0.1242 0.0000
vt 0.6729 0.1241 0.0000
vt 0.6728 0.0865 0.0000
vt 0.6726 0.0488 0.0000
vt 0.6725 0.0111 0.0000
vt 0.6275 0.2373 0.0000
vt 0.6046 0.2373 0.0000
vt 0.6045 0.1997 0.0000
vt 0.6274 0.1996 0.0000
vt 0.6503 0.2372 0.0000
vt 0.6502 0.1995 0.0000
vt 0.6276 0.2749 0.0000
vt 0.6048 0.2750 0.0000
vt 0.6504 0.2749 0.0000
vt 0.6733 0.2748 0.0000
vt 0.6732 0.2371 0.0000
vt 0.6731 0.1995 0.0000
# 113 texture coords

o HOSPITAL001
g HOSPITAL001
usemtl wire_134006006
s 1
f 1/1/1 2/2/1 3/3/1 
f 4/4/1 3/3/1 2/2/1 
f 5/5/1 3/3/1 4/4/1 
f 6/6/1 3/3/1 5/5/1 
f 6/6/1 7/7/1 3/3/1 
f 6/6/1 8/8/1 7/7/1 
f 8/8/1 9/9/1 7/7/1 
f 9/9/1 10/10/1 7/7/1 
f 10/10/1 11/11/1 7/7/1 
f 12/12/2 13/13/2 14/14/2 
f 12/12/2 14/14/2 15/15/2 
f 12/12/2 15/15/2 16/16/2 
f 12/12/2 16/16/2 17/17/2 
f 18/18/2 12/12/2 17/17/2 
f 19/19/2 18/18/2 17/17/2 
f 20/20/2 18/18/2 19/19/2 
f 21/21/2 18/18/2 20/20/2 
f 18/18/2 21/21/2 22/22/2 
f 23/23/3 1/24/3 3/25/3 
f 24/26/3 23/23/3 3/25/3 
f 25/27/3 24/26/3 3/25/3 
f 26/28/3 25/27/3 3/25/3 
f 18/29/3 26/28/3 3/25/3 
f 18/29/3 27/30/3 26/28/3 
f 18/29/3 28/31/3 27/30/3 
f 18/29/3 29/32/3 28/31/3 
f 18/29/3 22/33/3 29/32/3 
f 30/34/4 13/35/4 12/36/4 
f 31/37/4 30/34/4 12/36/4 
f 32/38/4 31/37/4 12/36/4 
f 33/39/4 32/38/4 12/36/4 
f 7/40/4 33/39/4 12/36/4 
f 7/40/4 34/41/4 33/39/4 
f 7/40/4 35/42/4 34/41/4 
f 7/40/4 36/43/4 35/42/4 
f 7/40/4 11/44/4 36/43/4 
f 12/45/5 18/46/5 3/3/5 
f 3/3/5 7/7/5 12/45/5 
f 37/47/6 38/48/6 39/49/6 
f 39/49/6 40/50/6 37/47/6 
f 41/51/6 37/47/6 40/50/6 
f 40/50/6 42/52/6 41/51/6 
f 42/52/6 40/50/6 43/53/6 
f 43/53/6 44/54/6 42/52/6 
f 45/55/6 46/56/6 38/48/6 
f 38/48/6 37/47/6 45/55/6 
f 19/19/6 17/17/6 46/56/6 
f 46/56/6 45/55/6 19/19/6 
f 20/20/6 19/19/6 45/55/6 
f 45/55/6 47/57/6 20/20/6 
f 47/57/6 45/55/6 37/47/6 
f 37/47/6 41/51/6 47/57/6 
f 48/58/6 47/57/6 41/51/6 
f 41/51/6 49/59/6 48/58/6 
f 20/20/6 47/57/6 48/58/6 
f 48/58/6 21/21/6 20/20/6 
f 22/22/6 21/21/6 48/58/6 
f 48/58/6 29/60/6 22/22/6 
f 29/60/6 48/58/6 49/59/6 
f 49/59/6 28/61/6 29/60/6 
f 50/62/6 42/52/6 44/54/6 
f 44/54/6 51/63/6 50/62/6 
f 41/51/6 42/52/6 50/62/6 
f 50/62/6 49/59/6 41/51/6 
f 28/61/6 49/59/6 50/62/6 
f 50/62/6 27/64/6 28/61/6 
f 27/64/6 50/62/6 51/63/6 
f 51/63/6 26/65/6 27/64/6 
f 52/66/6 53/67/6 6/68/6 
f 6/68/6 5/69/6 52/66/6 
f 54/70/6 55/71/6 53/67/6 
f 53/67/6 52/66/6 54/70/6 
f 56/72/6 54/70/6 52/66/6 
f 52/66/6 57/73/6 56/72/6 
f 57/73/6 52/66/6 5/69/6 
f 5/69/6 4/74/6 57/73/6 
f 58/75/6 59/76/6 55/71/6 
f 55/71/6 54/70/6 58/75/6 
f 44/54/6 43/53/6 58/75/6 
f 58/75/6 60/77/6 44/54/6 
f 60/77/6 58/75/6 54/70/6 
f 54/70/6 56/72/6 60/77/6 
f 61/78/6 60/77/6 56/72/6 
f 56/72/6 62/79/6 61/78/6 
f 44/54/6 60/77/6 61/78/6 
f 61/78/6 51/63/6 44/54/6 
f 26/65/6 51/63/6 61/78/6 
f 61/78/6 25/80/6 26/65/6 
f 25/80/6 61/78/6 62/79/6 
f 62/79/6 24/81/6 25/80/6 
f 63/82/6 57/73/6 4/74/6 
f 4/74/6 2/83/6 63/82/6 
f 56/72/6 57/73/6 63/82/6 
f 63/82/6 62/79/6 56/72/6 
f 24/81/6 62/79/6 63/82/6 
f 63/82/6 23/84/6 24/81/6 
f 23/84/6 63/82/6 2/83/6 
f 2/83/6 1/85/6 23/84/6 
f 64/86/6 36/87/6 11/88/6 
f 11/88/6 10/89/6 64/86/6 
f 65/90/6 35/91/6 36/87/6 
f 36/87/6 64/86/6 65/90/6 
f 66/92/6 65/90/6 64/86/6 
f 64/86/6 67/93/6 66/92/6 
f 67/93/6 64/86/6 10/89/6 
f 10/89/6 9/94/6 67/93/6 
f 68/95/6 34/96/6 35/91/6 
f 35/91/6 65/90/6 68/95/6 
f 69/97/6 68/95/6 65/90/6 
f 65/90/6 66/92/6 69/97/6 
f 70/98/6 69/97/6 66/92/6 
f 66/92/6 71/99/6 70/98/6 
f 59/76/6 70/98/6 71/99/6 
f 71/99/6 55/71/6 59/76/6 
f 72/100/6 67/93/6 9/94/6 
f 9/94/6 8/101/6 72/100/6 
f 71/99/6 66/92/6 67/93/6 
f 67/93/6 72/100/6 71/99/6 
f 55/71/6 71/99/6 72/100/6 
f 72/100/6 53/67/6 55/71/6 
f 53/67/6 72/100/6 8/101/6 
f 8/101/6 6/68/6 53/67/6 
f 73/102/6 31/103/6 32/104/6 
f 32/104/6 74/105/6 73/102/6 
f 75/106/6 73/102/6 74/105/6 
f 74/105/6 76/107/6 75/106/6 
f 77/108/6 30/109/6 31/103/6 
f 31/103/6 73/102/6 77/108/6 
f 14/14/6 13/13/6 30/109/6 
f 30/109/6 77/108/6 14/14/6 
f 15/15/6 14/14/6 77/108/6 
f 77/108/6 78/110/6 15/15/6 
f 78/110/6 77/108/6 73/102/6 
f 73/102/6 75/106/6 78/110/6 
f 79/111/6 78/110/6 75/106/6 
f 75/106/6 80/112/6 79/111/6 
f 16/16/6 15/15/6 78/110/6 
f 78/110/6 79/111/6 16/16/6 
f 17/17/6 16/16/6 79/111/6 
f 79/111/6 46/56/6 17/17/6 
f 46/56/6 79/111/6 80/112/6 
f 80/112/6 38/48/6 46/56/6 
f 80/112/6 75/106/6 76/107/6 
f 76/107/6 81/113/6 80/112/6 
f 38/48/6 80/112/6 81/113/6 
f 81/113/6 39/49/6 38/48/6 
# 0 polygons - 146 triangles

